<svg width="40" height="40" viewBox="0 0 40 40" fill="none" xmlns="http://www.w3.org/2000/svg">
<path d="M20 29.8873C19.7153 29.8873 19.4408 29.7842 19.2268 29.5968C18.4189 28.8903 17.6399 28.2264 16.9527 27.6408L16.9492 27.6377C14.9342 25.9207 13.1943 24.4378 11.9836 22.9771C10.6303 21.3441 10 19.7958 10 18.1043C10 16.461 10.5635 14.9449 11.5866 13.8351C12.6219 12.7122 14.0425 12.0938 15.5872 12.0938C16.7416 12.0938 17.7989 12.4587 18.7296 13.1785C19.1992 13.5418 19.6249 13.9865 20 14.5051C20.3752 13.9865 20.8008 13.5418 21.2706 13.1785C22.2012 12.4587 23.2585 12.0938 24.413 12.0938C25.9575 12.0938 27.3782 12.7122 28.4135 13.8351C29.4366 14.9449 30 16.461 30 18.1043C30 19.7958 29.3698 21.3441 28.0165 22.9769C26.8059 24.4378 25.0661 25.9205 23.0515 27.6374C22.363 28.224 21.5828 28.8889 20.773 29.5971C20.5592 29.7842 20.2846 29.8873 20 29.8873ZM15.5872 13.2653C14.3736 13.2653 13.2588 13.7496 12.4478 14.6292C11.6248 15.5219 11.1714 16.7561 11.1714 18.1043C11.1714 19.5269 11.7001 20.7992 12.8856 22.2296C14.0314 23.6122 15.7356 25.0645 17.7089 26.7462L17.7126 26.7492C18.4024 27.3371 19.1844 28.0036 19.9983 28.7153C20.8171 28.0023 21.6003 27.3347 22.2916 26.7458C24.2647 25.0642 25.9688 23.6122 27.1146 22.2296C28.2999 20.7992 28.8286 19.5269 28.8286 18.1043C28.8286 16.7561 28.3752 15.5219 27.5522 14.6292C26.7413 13.7496 25.6264 13.2653 24.413 13.2653C23.524 13.2653 22.7078 13.5479 21.9872 14.1052C21.3449 14.602 20.8975 15.23 20.6352 15.6695C20.5003 15.8955 20.2629 16.0304 20 16.0304C19.7371 16.0304 19.4997 15.8955 19.3648 15.6695C19.1026 15.23 18.6552 14.602 18.0128 14.1052C17.2922 13.5479 16.476 13.2653 15.5872 13.2653Z" fill="#46A358"/>
<rect x="0.5" y="0.5" width="39" height="39" rx="5.5" stroke="#46A358"/>
</svg>
